<svg width="200" height="200" xmlns="http://www.w3.org/2000/svg">

 <g>
  <title>Слой 1</title>
  <g stroke="null">
   <path stroke="null" d="m143.01894,62.93905l-34.10792,-16.40316c-7.50794,-4.52715 -16.85275,-4.60748 -24.43614,-0.21012l-34.49168,16.61328c-0.12944,0.06544 -0.26365,0.13548 -0.38854,0.21012c-8.18528,4.72458 -11.02688,15.25299 -6.34667,23.51585c1.58645,2.80113 3.92005,5.09622 6.7352,6.62439l9.51458,4.57596l0,22.87937c0.00564,10.23074 6.60013,19.26929 16.27689,22.30986c6.73412,1.96657 13.71671,2.92939 20.72662,2.8576c7.00883,0.07923 13.99142,-0.87549 20.72662,-2.83418c9.67676,-3.04035 16.27125,-12.07912 16.27689,-22.30986l0,-22.9122l9.25093,-4.4639l0,38.5121c0,2.57875 2.07082,4.6692 4.62536,4.6692c2.55454,0 4.62536,-2.09045 4.62536,-4.6692l0,-56.03129c0.03079,-5.48297 -4.25785,-10.54811 -8.9875,-12.93382zm-18.76529,57.82911c0.00238,6.11945 -3.93068,11.53238 -9.7134,13.36806c-5.86403,1.69144 -11.94076,2.51243 -18.03917,2.43736c-6.09841,0.07507 -12.17514,-0.74592 -18.03917,-2.43736c-5.78273,-1.8359 -9.71579,-7.24861 -9.7134,-13.36806l0,-18.4529l15.34262,7.37753c3.78562,2.26927 8.10917,3.46168 12.51186,3.45052c4.19064,0.02999 8.31081,-1.08998 11.91973,-3.2404l15.73094,-7.58786l0,18.45312zm14.80145,-35.90686l-34.88499,16.80939c-4.86407,2.85913 -10.8931,2.77815 -15.68021,-0.21012l-34.13112,-16.38915c-3.80449,-2.07097 -5.22551,-6.86318 -3.17398,-10.70351c0.69381,-1.29879 1.7341,-2.37542 3.00292,-3.1082l34.66752,-16.71593c4.86559,-2.85278 10.89137,-2.77202 15.68021,0.21012l34.10792,16.40316c2.50836,1.40604 4.07768,4.06117 4.11193,6.95729c0.00455,2.74334 -1.39478,5.29452 -3.7002,6.74696l0,0z"/>
  </g>
 </g>
</svg>